<?xml version="1.0" standalone="no"?>
<!DOCTYPE svg PUBLIC "-//W3C//DTD SVG 20010904//EN"
 "http://www.w3.org/TR/2001/REC-SVG-20010904/DTD/svg10.dtd">
<svg version="1.0" xmlns="http://www.w3.org/2000/svg"
 width="500.000000pt" height="500.000000pt" viewBox="0 0 500.000000 500.000000"
 preserveAspectRatio="xMidYMid meet">

<g transform="translate(0.000000,500.000000) scale(0.100000,-0.100000)"
fill="#000000" stroke="none">
<path d="M2330 3075 c0 -185 2 -225 14 -225 23 0 129 75 185 131 67 67 119
172 127 257 l7 62 -167 0 -166 0 0 -225z"/>
<path d="M2610 2394 c-161 -92 -254 -219 -274 -371 l-7 -53 166 0 165 0 0 225
c0 124 -1 225 -2 225 -2 0 -23 -12 -48 -26z"/>
<path d="M2965 1733 c-32 -8 -55 -34 -55 -62 0 -40 12 -50 81 -74 52 -18 65
-26 67 -46 2 -13 -2 -28 -10 -32 -18 -12 -81 -11 -112 1 -42 16 -42 -9 0 -26
72 -30 154 0 154 56 0 35 -23 55 -84 71 -56 16 -77 39 -60 67 9 13 25 17 73
16 67 -1 78 8 30 25 -33 11 -50 12 -84 4z"/>
<path d="M1100 1605 c0 -104 2 -125 15 -125 12 0 15 13 15 60 l0 60 80 0 80 0
0 -60 c0 -47 3 -60 15 -60 13 0 15 21 15 125 0 102 -3 125 -14 125 -11 0 -16
-15 -18 -52 l-3 -53 -77 -3 -78 -3 0 56 c0 42 -3 55 -15 55 -13 0 -15 -21 -15
-125z"/>
<path d="M1430 1605 l0 -125 90 0 c73 0 90 3 90 15 0 12 -15 15 -75 15 l-75 0
0 45 0 45 65 0 c37 0 65 4 65 10 0 6 -28 10 -65 10 l-65 0 0 45 0 45 70 0 c40
0 70 4 70 10 0 6 -35 10 -85 10 l-85 0 0 -125z"/>
<path d="M1761 1708 c-5 -13 -26 -59 -46 -103 -55 -120 -57 -125 -40 -125 8 0
21 16 29 35 l15 35 70 0 71 0 14 -35 c8 -19 22 -35 31 -35 18 0 18 0 -55 158
-32 68 -48 92 -62 92 -10 0 -22 -10 -27 -22z m61 -71 l26 -62 -55 -3 c-30 -2
-57 -1 -59 1 -5 5 49 127 56 127 3 0 17 -28 32 -63z"/>
<path d="M1990 1605 l0 -125 85 0 c69 0 85 3 85 15 0 12 -14 15 -70 15 l-70 0
0 110 c0 91 -3 110 -15 110 -13 0 -15 -21 -15 -125z"/>
<path d="M2200 1720 c0 -5 20 -10 45 -10 l45 0 0 -115 c0 -96 3 -115 15 -115
12 0 15 19 15 115 l0 115 45 0 c25 0 45 5 45 10 0 6 -42 10 -105 10 -63 0
-105 -4 -105 -10z"/>
<path d="M2480 1605 c0 -104 2 -125 15 -125 12 0 15 13 15 60 l0 60 75 0 75 0
0 -60 c0 -47 3 -60 15 -60 13 0 15 21 15 125 0 104 -2 125 -15 125 -12 0 -15
-13 -15 -55 l0 -55 -75 0 -75 0 0 55 c0 42 -3 55 -15 55 -13 0 -15 -21 -15
-125z"/>
<path d="M3140 1720 c0 -5 20 -10 45 -10 l45 0 0 -115 c0 -96 3 -115 15 -115
12 0 15 19 15 115 l0 115 45 0 c25 0 45 5 45 10 0 6 -42 10 -105 10 -63 0
-105 -4 -105 -10z"/>
<path d="M3472 1683 c-11 -26 -37 -83 -56 -125 -27 -60 -32 -78 -21 -78 9 0
23 16 32 35 17 35 17 35 85 35 68 0 68 0 85 -35 9 -19 23 -35 30 -35 7 0 13 2
13 4 0 2 -24 58 -53 123 -64 141 -82 152 -115 76z m97 -105 c1 -5 -24 -8 -54
-8 -30 0 -55 4 -55 10 0 5 12 35 26 67 l26 58 28 -60 c16 -33 29 -63 29 -67z"/>
<path d="M3712 1605 c1 -97 4 -125 15 -125 9 0 13 13 13 40 l0 40 48 0 c44 0
49 -2 72 -40 14 -22 33 -40 42 -40 15 0 13 6 -12 41 l-30 42 25 23 c38 35 37
87 -1 122 -21 19 -36 22 -99 22 l-75 0 2 -125z m154 80 c18 -19 23 -31 19 -48
-11 -35 -35 -47 -92 -47 l-53 0 0 60 0 60 50 0 c41 0 56 -5 76 -25z"/>
<path d="M1312 1320 c0 -19 2 -27 5 -17 2 9 2 25 0 35 -3 9 -5 1 -5 -18z"/>
<path d="M2232 1330 c0 -14 2 -19 5 -12 2 6 2 18 0 25 -3 6 -5 1 -5 -13z"/>
<path d="M2662 1330 c0 -14 2 -19 5 -12 2 6 2 18 0 25 -3 6 -5 1 -5 -13z"/>
<path d="M2838 1325 c-3 -14 -1 -28 3 -31 5 -3 9 9 9 25 0 38 -6 40 -12 6z"/>
<path d="M3512 1320 c0 -19 2 -27 5 -17 2 9 2 25 0 35 -3 9 -5 1 -5 -18z"/>
<path d="M3752 1320 c0 -19 2 -27 5 -17 2 9 2 25 0 35 -3 9 -5 1 -5 -18z"/>
<path d="M2071 1304 c0 -11 3 -14 6 -6 3 7 2 16 -1 19 -3 4 -6 -2 -5 -13z"/>
</g>
</svg>
